<svg width="49" height="40" viewBox="0 0 49 40" fill="none" xmlns="http://www.w3.org/2000/svg">
<path d="M2.52841 35V5.90909H14.1761C16.3163 5.90909 18.1013 6.22633 19.5312 6.8608C20.9612 7.49527 22.036 8.37595 22.7557 9.50284C23.4754 10.6203 23.8352 11.9081 23.8352 13.3665C23.8352 14.5028 23.608 15.5019 23.1534 16.3636C22.6989 17.2159 22.0739 17.9167 21.2784 18.4659C20.4924 19.0057 19.5928 19.3892 18.5795 19.6165V19.9006C19.6875 19.9479 20.7244 20.2604 21.6903 20.8381C22.6657 21.4157 23.4564 22.2254 24.0625 23.267C24.6686 24.2992 24.9716 25.5303 24.9716 26.9602C24.9716 28.5038 24.5881 29.8816 23.821 31.0938C23.0634 32.2964 21.9413 33.2481 20.4545 33.9489C18.9678 34.6496 17.1354 35 14.9574 35H2.52841ZM8.67898 29.9716H13.6932C15.4072 29.9716 16.6572 29.6449 17.4432 28.9915C18.2292 28.3286 18.6222 27.4479 18.6222 26.3494C18.6222 25.5445 18.428 24.8343 18.0398 24.2188C17.6515 23.6032 17.0975 23.1203 16.3778 22.7699C15.6676 22.4195 14.8201 22.2443 13.8352 22.2443H8.67898V29.9716ZM8.67898 18.0824H13.2386C14.0814 18.0824 14.8295 17.9356 15.483 17.642C16.1458 17.339 16.6667 16.9129 17.0455 16.3636C17.4337 15.8144 17.6278 15.1562 17.6278 14.3892C17.6278 13.3381 17.2538 12.4905 16.5057 11.8466C15.767 11.2027 14.7159 10.8807 13.3523 10.8807H8.67898V18.0824ZM34.0817 35.4119C32.6896 35.4119 31.4491 35.1705 30.3601 34.6875C29.2711 34.1951 28.4093 33.4706 27.7749 32.5142C27.1499 31.5483 26.8374 30.3456 26.8374 28.9062C26.8374 27.6941 27.0599 26.6761 27.505 25.8523C27.95 25.0284 28.5561 24.3655 29.3232 23.8636C30.0902 23.3617 30.9614 22.983 31.9368 22.7273C32.9216 22.4716 33.9538 22.2917 35.0334 22.1875C36.3023 22.0549 37.325 21.9318 38.1016 21.8182C38.8781 21.6951 39.4415 21.5152 39.7919 21.2784C40.1423 21.0417 40.3175 20.6913 40.3175 20.2273V20.142C40.3175 19.2424 40.0334 18.5464 39.4652 18.054C38.9065 17.5616 38.111 17.3153 37.0788 17.3153C35.9898 17.3153 35.1233 17.5568 34.4794 18.0398C33.8355 18.5133 33.4093 19.1098 33.201 19.8295L27.6044 19.375C27.8885 18.0492 28.4472 16.9034 29.2805 15.9375C30.1139 14.9621 31.1887 14.214 32.505 13.6932C33.8307 13.1629 35.3648 12.8977 37.1072 12.8977C38.3194 12.8977 39.4794 13.0398 40.5874 13.3239C41.7048 13.608 42.6944 14.0483 43.5561 14.6449C44.4273 15.2415 45.1139 16.0085 45.6158 16.946C46.1177 17.8741 46.3686 18.9867 46.3686 20.2841V35H40.63V31.9744H40.4595C40.1091 32.6562 39.6404 33.2576 39.0533 33.7784C38.4661 34.2898 37.7607 34.6922 36.9368 34.9858C36.1129 35.2699 35.1612 35.4119 34.0817 35.4119ZM35.8146 31.2358C36.7048 31.2358 37.4908 31.0606 38.1726 30.7102C38.8544 30.3504 39.3894 29.8674 39.7777 29.2614C40.166 28.6553 40.3601 27.9687 40.3601 27.2017V24.8864C40.1707 25.0095 39.9103 25.1231 39.5788 25.2273C39.2569 25.322 38.8923 25.4119 38.4851 25.4972C38.0779 25.5729 37.6707 25.6439 37.2635 25.7102C36.8563 25.767 36.487 25.8191 36.1555 25.8665C35.4453 25.9706 34.825 26.1364 34.2947 26.3636C33.7644 26.5909 33.3525 26.8987 33.0589 27.2869C32.7654 27.6657 32.6186 28.1392 32.6186 28.7074C32.6186 29.5312 32.9169 30.161 33.5135 30.5966C34.1196 31.0227 34.8866 31.2358 35.8146 31.2358Z" fill="#1B1F29"/>
<path d="M27 8H46" stroke="#1B1F29" stroke-width="4"/>
</svg>
