<svg width="49" height="41" viewBox="0 0 49 41" fill="none" xmlns="http://www.w3.org/2000/svg">
<path d="M2.52841 35.5V6.40909H14.1761C16.3163 6.40909 18.1013 6.72633 19.5312 7.3608C20.9612 7.99527 22.036 8.87595 22.7557 10.0028C23.4754 11.1203 23.8352 12.4081 23.8352 13.8665C23.8352 15.0028 23.608 16.0019 23.1534 16.8636C22.6989 17.7159 22.0739 18.4167 21.2784 18.9659C20.4924 19.5057 19.5928 19.8892 18.5795 20.1165V20.4006C19.6875 20.4479 20.7244 20.7604 21.6903 21.3381C22.6657 21.9157 23.4564 22.7254 24.0625 23.767C24.6686 24.7992 24.9716 26.0303 24.9716 27.4602C24.9716 29.0038 24.5881 30.3816 23.821 31.5938C23.0634 32.7964 21.9413 33.7481 20.4545 34.4489C18.9678 35.1496 17.1354 35.5 14.9574 35.5H2.52841ZM8.67898 30.4716H13.6932C15.4072 30.4716 16.6572 30.1449 17.4432 29.4915C18.2292 28.8286 18.6222 27.9479 18.6222 26.8494C18.6222 26.0445 18.428 25.3343 18.0398 24.7188C17.6515 24.1032 17.0975 23.6203 16.3778 23.2699C15.6676 22.9195 14.8201 22.7443 13.8352 22.7443H8.67898V30.4716ZM8.67898 18.5824H13.2386C14.0814 18.5824 14.8295 18.4356 15.483 18.142C16.1458 17.839 16.6667 17.4129 17.0455 16.8636C17.4337 16.3144 17.6278 15.6562 17.6278 14.8892C17.6278 13.8381 17.2538 12.9905 16.5057 12.3466C15.767 11.7027 14.7159 11.3807 13.3523 11.3807H8.67898V18.5824ZM34.0817 35.9119C32.6896 35.9119 31.4491 35.6705 30.3601 35.1875C29.2711 34.6951 28.4093 33.9706 27.7749 33.0142C27.1499 32.0483 26.8374 30.8456 26.8374 29.4062C26.8374 28.1941 27.0599 27.1761 27.505 26.3523C27.95 25.5284 28.5561 24.8655 29.3232 24.3636C30.0902 23.8617 30.9614 23.483 31.9368 23.2273C32.9216 22.9716 33.9538 22.7917 35.0334 22.6875C36.3023 22.5549 37.325 22.4318 38.1016 22.3182C38.8781 22.1951 39.4415 22.0152 39.7919 21.7784C40.1423 21.5417 40.3175 21.1913 40.3175 20.7273V20.642C40.3175 19.7424 40.0334 19.0464 39.4652 18.554C38.9065 18.0616 38.111 17.8153 37.0788 17.8153C35.9898 17.8153 35.1233 18.0568 34.4794 18.5398C33.8355 19.0133 33.4093 19.6098 33.201 20.3295L27.6044 19.875C27.8885 18.5492 28.4472 17.4034 29.2805 16.4375C30.1139 15.4621 31.1887 14.714 32.505 14.1932C33.8307 13.6629 35.3648 13.3977 37.1072 13.3977C38.3194 13.3977 39.4794 13.5398 40.5874 13.8239C41.7048 14.108 42.6944 14.5483 43.5561 15.1449C44.4273 15.7415 45.1139 16.5085 45.6158 17.446C46.1177 18.3741 46.3686 19.4867 46.3686 20.7841V35.5H40.63V32.4744H40.4595C40.1091 33.1562 39.6404 33.7576 39.0533 34.2784C38.4661 34.7898 37.7607 35.1922 36.9368 35.4858C36.1129 35.7699 35.1612 35.9119 34.0817 35.9119ZM35.8146 31.7358C36.7048 31.7358 37.4908 31.5606 38.1726 31.2102C38.8544 30.8504 39.3894 30.3674 39.7777 29.7614C40.166 29.1553 40.3601 28.4687 40.3601 27.7017V25.3864C40.1707 25.5095 39.9103 25.6231 39.5788 25.7273C39.2569 25.822 38.8923 25.9119 38.4851 25.9972C38.0779 26.0729 37.6707 26.1439 37.2635 26.2102C36.8563 26.267 36.487 26.3191 36.1555 26.3665C35.4453 26.4706 34.825 26.6364 34.2947 26.8636C33.7644 27.0909 33.3525 27.3987 33.0589 27.7869C32.7654 28.1657 32.6186 28.6392 32.6186 29.2074C32.6186 30.0312 32.9169 30.661 33.5135 31.0966C34.1196 31.5227 34.8866 31.7358 35.8146 31.7358Z" fill="white"/>
<path d="M27 8.5H46" stroke="white" stroke-width="4"/>
</svg>
